<svg width="32" height="32" viewBox="0 0 32 32" fill="none" xmlns="http://www.w3.org/2000/svg">
<path d="M19.8665 2.66699H12.1332C11.2265 2.66699 9.9465 3.20033 9.3065 3.84033L3.83984 9.30701C3.19984 9.94701 2.6665 11.227 2.6665 12.1337V19.867C2.6665 20.7736 3.19984 22.0536 3.83984 22.6936L9.3065 28.1603C9.9465 28.8003 11.2265 29.3337 12.1332 29.3337H19.8665C20.7732 29.3337 22.0532 28.8003 22.6932 28.1603L28.1598 22.6936C28.7998 22.0536 29.3332 20.7736 29.3332 19.867V12.1337C29.3332 11.227 28.7998 9.94701 28.1598 9.30701L22.6932 3.84033C22.0532 3.20033 20.7732 2.66699 19.8665 2.66699Z" stroke="#292D32" stroke-width="1.5" stroke-linecap="round" stroke-linejoin="round"/>
<path d="M11.3335 20.6663L20.6668 11.333" stroke="#292D32" stroke-width="1.5" stroke-linecap="round" stroke-linejoin="round"/>
<path d="M20.6668 20.6663L11.3335 11.333" stroke="#292D32" stroke-width="1.5" stroke-linecap="round" stroke-linejoin="round"/>
</svg>
